<svg id="logo" xmlns="http://www.w3.org/2000/svg" width="233" height="72" viewBox="0 0 233 72">
  <defs>
    <style>
      .cls-1 {
        fill: none;
        stroke: #db3135;
        stroke-width: 2px;
      }

      .cls-2 {
        fill: #111;
      }

      .cls-2, .cls-4 {
        fill-rule: evenodd;
      }

      .cls-3, .cls-4 {
        fill: #db3135;
      }
    </style>
  </defs>
  <rect class="cls-1" x="1" y="1" width="231" height="70"/>
  <path id="Sushi_Bar" data-name="Sushi Bar" class="cls-2" d="M401.775,119.189a5.6,5.6,0,0,0,4.323-1.61,6.568,6.568,0,0,0,1.487-4.62,8.463,8.463,0,0,0-.91-4.025,14.418,14.418,0,0,0-3.325-3.815,13.708,13.708,0,0,1-2.607-2.8,4.619,4.619,0,0,1-.718-2.485q0-2.344,1.925-2.345a1.777,1.777,0,0,1,1.435.578,2.813,2.813,0,0,1,.49,1.838v1.26h3.64v-1.015a6.653,6.653,0,0,0-1.417-4.568,5.31,5.31,0,0,0-4.183-1.593,5.524,5.524,0,0,0-4.27,1.593,6.388,6.388,0,0,0-1.47,4.5,7.741,7.741,0,0,0,.945,3.832,15.493,15.493,0,0,0,3.325,3.8,12.969,12.969,0,0,1,2.59,2.817,5.188,5.188,0,0,1,.7,2.713,2.809,2.809,0,0,1-.507,1.872,1.878,1.878,0,0,1-1.488.578q-2,0-2-2.38v-1.68h-3.64v1.4a6.594,6.594,0,0,0,1.435,4.567,5.409,5.409,0,0,0,4.235,1.593h0Zm15.015,0a5.522,5.522,0,0,0,4.27-1.593,6.493,6.493,0,0,0,1.47-4.567V94.339h-3.71v18.97a2.673,2.673,0,0,1-.507,1.82,2.164,2.164,0,0,1-2.9,0,2.667,2.667,0,0,1-.508-1.82V94.339h-3.85v18.69a6.493,6.493,0,0,0,1.47,4.567,5.522,5.522,0,0,0,4.27,1.593h0Zm14.875,0a5.6,5.6,0,0,0,4.323-1.61,6.568,6.568,0,0,0,1.487-4.62,8.463,8.463,0,0,0-.91-4.025,14.418,14.418,0,0,0-3.325-3.815,13.708,13.708,0,0,1-2.607-2.8,4.619,4.619,0,0,1-.718-2.485q0-2.344,1.925-2.345a1.777,1.777,0,0,1,1.435.578,2.813,2.813,0,0,1,.49,1.838v1.26h3.64v-1.015a6.653,6.653,0,0,0-1.417-4.568,5.31,5.31,0,0,0-4.183-1.593,5.524,5.524,0,0,0-4.27,1.593,6.388,6.388,0,0,0-1.47,4.5,7.741,7.741,0,0,0,.945,3.832,15.493,15.493,0,0,0,3.325,3.8,12.969,12.969,0,0,1,2.59,2.817,5.188,5.188,0,0,1,.7,2.713,2.809,2.809,0,0,1-.507,1.872,1.878,1.878,0,0,1-1.488.578q-2,0-2-2.38v-1.68H426v1.4a6.594,6.594,0,0,0,1.435,4.567,5.409,5.409,0,0,0,4.235,1.593h0Zm9.415-.35h3.85V107.814h4.13v11.025h3.85v-24.5h-3.85v9.975h-4.13V94.339h-3.85v24.5Zm16.1,0h3.85v-24.5h-3.85v24.5Zm15.12,0h6.055a5.218,5.218,0,0,0,5.845-5.81v-2.1q0-4.13-2.87-5.11v-0.07a3.6,3.6,0,0,0,1.873-1.715,6.731,6.731,0,0,0,.612-3.08v-0.98a4.923,4.923,0,0,0-5.7-5.635H472.3v24.5Zm3.85-14.525V97.839h1.855a1.786,1.786,0,0,1,1.488.595,3.112,3.112,0,0,1,.472,1.925v1.365a2.813,2.813,0,0,1-.577,1.995,2.311,2.311,0,0,1-1.733.595h-1.5Zm0,11.025v-7.525h1.715a2.449,2.449,0,0,1,1.908.647,3.549,3.549,0,0,1,.577,2.328v2.135a2.79,2.79,0,0,1-.49,1.872,1.928,1.928,0,0,1-1.5.543H476.15Zm10.675,3.5h3.57l0.7-4.8h4.375v-0.07l0.7,4.865h3.85l-3.99-24.5h-5.215Zm4.725-8.12,1.68-12.11h0.07l1.715,12.11H491.55Zm11.725,8.12h3.85v-10.5h1.33a2.3,2.3,0,0,1,1.873.665,3.806,3.806,0,0,1,.542,2.345v4.48a16.765,16.765,0,0,0,.07,1.89,5.64,5.64,0,0,0,.28,1.12h3.92a4.26,4.26,0,0,1-.35-1.278,16.347,16.347,0,0,1-.07-1.7v-4.305a8.634,8.634,0,0,0-.577-3.465,3.007,3.007,0,0,0-1.978-1.715v-0.07q2.52-1.015,2.52-4.83V99.974a4.923,4.923,0,0,0-5.7-5.635h-5.705v24.5Zm3.85-14v-7h1.75a1.786,1.786,0,0,1,1.488.595,3.112,3.112,0,0,1,.472,1.925v1.89a2.813,2.813,0,0,1-.577,2,2.311,2.311,0,0,1-1.733.595h-1.4Z" transform="translate(-374 -71)"/>
  <rect class="cls-3" x="161" y="1" width="2" height="70"/>
  <path class="cls-4" d="M572.419,94.716c0.794-1.151,1.089-2.826,1.908-3.89-1,1.061-1.463,2.548-2.291,3.973,0.839-1.617,1.28-3.051,2.338-4.031a3.362,3.362,0,0,1,.368-0.38,1.292,1.292,0,0,1,.364-0.208,3.859,3.859,0,0,0-.61.479,4,4,0,0,1,.907-0.592c2.509-.865,10.063-1.524,8.019-4a1.753,1.753,0,0,1-.15.253,4.8,4.8,0,0,0-3.12-1.879,12.675,12.675,0,0,1,1.748.291,6.234,6.234,0,0,0-5.066-.016c1.875-5.047-4.671-5.286-7.09-4.232a3.5,3.5,0,0,0-.84.7c-0.107.344,0.171,0.728,1.015,1.1,0.044,0,.082.009,0.13,0.009-0.028.008-.051,0.008-0.078,0.014a8.171,8.171,0,0,0,.889.321c0.052,0.14.972,1.314,0.891,0.849,1.575,7.194-8.577,1.388-9.323,5.584,0.639,1.47,7.066,3.091,8.019,1.8-0.842,3.089-.134,4.7-4.087,5.492-4.393,1.582-9.159,3.018-13.772,4.3-0.389.1-5.451-.239-4.464,1.35a5.544,5.544,0,0,0,4.047,2.319c4.732,0.618,9.849-1.988,14.574-4.191-1.321.981-4.745,3.419-3.192,4.411a2.463,2.463,0,0,0,.9,2.424c0.688,0.52,4.2-4.468,5.294-5.287-0.936.953-1.767-1.46-2.326-1.861a34.312,34.312,0,0,1,5.455-2.114c4.177-1.546,4.577-1.079,4.319,1.442-0.182,1.877-2.312,4.019-3.214,4.522-1.292,1.97,5.6-1.1,6.395-2.171,1.354-1.561-.586-4.069-1.8-4.993,1.564-.333,8.711-1.351,8.647-0.919-0.155.482-1.529,1.761-1.228,2.146s10.221-.741,10.015-2.149C596.009,88.75,575.888,94.015,572.419,94.716Zm3.984-5.007c0.056-.014.186-0.043,0.361-0.078-0.416.137-.785,0.248-1.082,0.324A6.581,6.581,0,0,1,576.4,89.709ZM557.7,116.393a4.355,4.355,0,0,0-1.441.862c-0.173,1.7,1.559,4.181,3.538,3.737,1.566-.524,10.788-3.179,11.073-3.87a43.047,43.047,0,0,0-10.133,3.171,39.074,39.074,0,0,1,10.419-3.276,32.808,32.808,0,0,1-.753,5.722c0.06-.305.88-5.714,0.489-5.623-0.457,2.99-1.239,6.191-1.44,9.378-0.162,2.7,5.18,8.376,5.428,3.75a46.116,46.116,0,0,1-.162-6.665c-0.09-5.723-1.7-6.937,4.3-7.673,0.764-.105,4.642.047,6.063-0.65,5.458,0.568,6.055-3.938-.133-4.5-1.228-.113-5.763-2.884-4.657-0.38,0.686,2.433-3.312,3-5.856,3.015-2.485.006,1.73-4.831,2.6-5.27,0.582-1.117,3.138-1.174,4.108-2.108,1.071-1.368-1.822-2.377-2.562-2.37-1.114.033-12.884,5.646-13.271,4.767,1.284,1.827,4.426.767,6.212,0.506C572.088,109.834,559.8,115.784,557.7,116.393Zm13.868-5.519c-0.007.559-.365,3.373-1.082,3.076-0.4.439-3.825,1.058-4.419,1.166-0.322.062-3.955,1.242-2.047,0.19C566.483,113.782,568.569,112.433,571.566,110.874Zm-2.662-29.7a0.788,0.788,0,0,1,.246-0.339,1.549,1.549,0,0,0-.678.956,1.1,1.1,0,0,0,1.5.507l-0.052-.024C568.574,82.25,568.437,81.745,568.9,81.179Zm5.423,9.647c0.054-.058.114-0.114,0.169-0.167-0.04.037-.079,0.075-0.122,0.109A0.361,0.361,0,0,0,574.327,90.826ZM569.55,80.568c0.062-.026.129-0.06,0.194-0.088,0.116-.072.245-0.143,0.37-0.211C569.937,80.355,569.744,80.462,569.55,80.568Zm0.564-.3c0.184-.095.379-0.187,0.576-0.267C570.546,80.073,570.337,80.163,570.114,80.269Z" transform="translate(-374 -71)"/>
</svg>
