<svg xmlns="http://www.w3.org/2000/svg" width="20" height="20" viewBox="0 0 20 20">
  <defs>
    <style>
      .cls-1 {
        fill: #db3135;
        fill-rule: evenodd;
      }
    </style>
  </defs>
  <path id="phone" class="cls-1" d="M393.223,1172.61a1.717,1.717,0,0,1,.606.2,1.735,1.735,0,0,1,.507.39,1.612,1.612,0,0,1,.332.53,1.677,1.677,0,0,1,.118.64v4.69a1.731,1.731,0,0,1-.137.7,1.826,1.826,0,0,1-.371.55,2.272,2.272,0,0,1-.567.39,1.641,1.641,0,0,1-.683.15H391.27v-1.21H390.1v-5.86h1.172v-1.17h0.7a8.789,8.789,0,0,0-1.113-2.4,8.926,8.926,0,0,0-1.66-1.86,7.309,7.309,0,0,0-2.071-1.21,6.6,6.6,0,0,0-4.687,0,7.29,7.29,0,0,0-2.07,1.21,8.93,8.93,0,0,0-1.661,1.86,8.73,8.73,0,0,0-1.113,2.4h0.7v1.17h1.172v5.86H378.3v1.21h-1.25a3.2,3.2,0,0,0,.371.9,2.891,2.891,0,0,0,.645.76,2.769,2.769,0,0,0,.859.51,2.812,2.812,0,0,0,1.016.18h3.2a1.543,1.543,0,0,1,.234-0.49,1.649,1.649,0,0,1,.371-0.37,1.593,1.593,0,0,1,.489-0.24,2.048,2.048,0,0,1,.547-0.07H388.3a1.755,1.755,0,0,1,.7.13,1.859,1.859,0,0,1,.547.37,2.165,2.165,0,0,1,.391.55,1.545,1.545,0,0,1,.156.7,1.6,1.6,0,0,1-.156.69,1.912,1.912,0,0,1-.391.56,1.685,1.685,0,0,1-.547.37,1.6,1.6,0,0,1-.7.14h-3.515a1.723,1.723,0,0,1-.547-0.08,1.263,1.263,0,0,1-.489-0.25,2.3,2.3,0,0,1-.371-0.39,1.559,1.559,0,0,1-.234-0.45h-3.2a3.921,3.921,0,0,1-1.485-.29,4.657,4.657,0,0,1-1.25-.78,4.085,4.085,0,0,1-.9-1.16,3.852,3.852,0,0,1-.43-1.44,1.349,1.349,0,0,1-.449-0.26,1.4,1.4,0,0,1-.351-0.39,1.831,1.831,0,0,1-.215-0.47,1.674,1.674,0,0,1-.078-0.52v-4.69a1.7,1.7,0,0,1,.117-0.64,1.6,1.6,0,0,1,.332-0.53,1.727,1.727,0,0,1,.508-0.39,1.7,1.7,0,0,1,.605-0.2,10.69,10.69,0,0,1,1.25-2.87,9.369,9.369,0,0,1,1.934-2.23,8.98,8.98,0,0,1,2.461-1.44,7.624,7.624,0,0,1,5.586,0,8.99,8.99,0,0,1,2.46,1.44,9.369,9.369,0,0,1,1.934,2.23,10.722,10.722,0,0,1,1.25,2.87h0Zm-8.437,10.59a0.642,0.642,0,0,0-.235.04,0.436,0.436,0,0,0-.195.11,0.529,0.529,0,0,0-.117.2,0.73,0.73,0,0,0-.039.23,0.592,0.592,0,0,0,.039.22,0.7,0.7,0,0,0,.117.19,0.412,0.412,0,0,0,.195.14,0.642,0.642,0,0,0,.235.04H388.3a0.649,0.649,0,0,0,.235-0.04,0.417,0.417,0,0,0,.195-0.14,0.752,0.752,0,0,0,.117-0.19,0.613,0.613,0,0,0,.039-0.22,0.76,0.76,0,0,0-.039-0.23,0.556,0.556,0,0,0-.117-0.2,0.442,0.442,0,0,0-.195-0.11,0.649,0.649,0,0,0-.235-0.04h-3.515Zm-7.657-3.56v-5.86h-0.586a0.714,0.714,0,0,0-.214.04,1,1,0,0,0-.2.12,0.4,0.4,0,0,0-.136.2,0.647,0.647,0,0,0-.04.23v4.69a0.688,0.688,0,0,0,.04.23,0.448,0.448,0,0,0,.136.2,0.635,0.635,0,0,0,.2.11,0.5,0.5,0,0,0,.214.04h0.586Zm16.485-.58v-4.69a0.694,0.694,0,0,0-.039-0.23,0.415,0.415,0,0,0-.137-0.2,1.06,1.06,0,0,0-.195-0.12,0.733,0.733,0,0,0-.215-0.04h-0.586v5.86h0.586a0.509,0.509,0,0,0,.215-0.04,0.655,0.655,0,0,0,.195-0.11,0.467,0.467,0,0,0,.137-0.2,0.74,0.74,0,0,0,.039-0.23h0Z" transform="translate(-374.781 -1165.53)"/>
</svg>
