<svg xmlns="http://www.w3.org/2000/svg" width="337.031" height="325.97" viewBox="0 0 337.031 325.97">
  <defs>
    <style>
      .cls-1 {
        fill: #34384c;
        fill-rule: evenodd;
      }
    </style>
  </defs>
  <path class="cls-1" d="M353.65,2665.52c0,61.95,1.069,78.58,1.069,85.66,0,10.27-6.011,13.8-19.087,13.8-9.895,0-13.434-3.19-13.434-12.38,0-8.5,2.126-41.78,2.826-76.82-24.729,31.15-39.921,43.89-70.316,60.18-1.414.7-3.529-2.48-2.471-3.9,32.866-34.32,51.241-62.29,67.49-103.7H285.8a129.1,129.1,0,0,0-21.547,2.12l-3.895-13.1a106.5,106.5,0,0,0,24.028,2.83h39.934V2609.6a269.967,269.967,0,0,0-1.414-27.97c30.039,2.48,40.635,4.96,40.635,10.27,0,3.18-2.471,5.31-9.9,8.49v19.82h24.741c12.366-15.22,16.606-18.05,19.077-18.05,3.183,0,7.067,2.83,19.088,12.74,5.3,4.25,8.124,7.44,8.124,9.92s-1.057,3.54-4.6,3.54H353.65v17.34c33.924,6.37,51.6,19.47,51.6,36.46,0,9.91-6.367,16.63-14.848,16.63s-12.009-3.54-16.6-16.63c-4.942-13.45-11.308-23.72-20.145-31.15v14.51Zm-6.01-98.39c6.722-17.35,10.963-30.09,14.135-42.84a211.915,211.915,0,0,0,4.252-24.07c27.556,8.14,38.508,13.45,38.508,18.41,0,3.89-2.827,5.31-12.721,6.02-13.423,19.11-21.2,28.32-34.981,42.48h22.616c14.491-17.71,18.732-20.54,21.2-20.54,3.183,0,6.711,2.83,20.49,14.16,6.01,5.31,8.836,8.49,8.836,10.97s-1.057,3.54-4.584,3.54h-141a121.74,121.74,0,0,0-20.845,2.13l-3.884-13.1a109.963,109.963,0,0,0,24.384,2.84H347.64Zm-23.316-101.59c0-9.21-.357-17.7-1.058-26.55,38.509,3.19,43.1,6.37,43.1,9.56s-3.527,6.01-10.951,8.84v31.51h23.316c10.963-15.22,15.2-18.05,17.675-18.05,3.183,0,6.711,2.83,18.73,12.74,4.942,4.25,7.769,7.43,7.769,9.91s-1.057,3.54-4.6,3.54H292.871a126.444,126.444,0,0,0-21.2,2.12l-3.883-13.09a107,107,0,0,0,24.028,2.83h32.51v-23.36Zm-10.607,94.5c-10.239,0-11.653-2.83-14.48-24.06-1.77-12.39-3.884-20.18-9.192-28.68-1.058-1.41.712-3.54,2.482-2.83,24.373,9.2,37.094,22.3,37.094,37.17C329.621,2552.61,323.266,2560.04,313.717,2560.04Zm152.31,4.95c-1.058,30.8-3.183,53.1-7.424,75.04-11.308,59.47-33.923,91.68-72.788,118.93-1.425,1.07-5.308-2.47-4.251-3.89,29.693-35.75,43.829-71.49,50.539-134.86,2.828-27.25,2.828-59.81,2.828-99.46,0-19.11-.713-29.02-2.127-46.37,16.962,7.08,20.5,8.15,37.107,16.29a211.905,211.905,0,0,0,45.944-30.44,143.7,143.7,0,0,0,19.431-19.11c24.029,14.16,35.337,23,35.337,27.6,0,3.19-2.482,5.66-15.547,4.25-27.213,12.39-64.665,24.07-87.992,26.9v8.49c0,18.41-.356,34.34-0.712,48.5H537.4c14.491-18.41,18.731-21.24,21.2-21.24,3.183,0,6.711,2.83,21.2,14.87,6.367,5.31,9.193,8.49,9.193,10.97s-1.068,3.53-4.6,3.53H536.344v65.85c0,45.66.7,102.29,0.7,121.04,0,8.85-7.413,12.74-20.134,12.74-9.193,0-14.134-2.83-14.134-10.61,0-8.85,1.413-36.11,1.413-90.61v-98.41H466.027Z" transform="translate(-251.969 -2439)"/>
</svg>
