<svg xmlns="http://www.w3.org/2000/svg" width="93" height="80" viewBox="0 0 93 80">
  <defs>
    <style>
      .cls-1 {
        fill: #fff;
        fill-rule: evenodd;
      }
    </style>
  </defs>
  <path class="cls-1" d="M689.7,5701.99c18.2-3.32,75.006-15.04,82.3-16.6l-0.572-2.57c-5.516,1.19-63.629,14.05-81.874,18.52Zm71.6,4.27c-18.2,3.32-75.006,15.04-82.3,16.6l0.571,2.57c5.516-1.18,63.63-14.04,81.874-18.52Zm0.088-16.61a0.669,0.669,0,0,0-.892-0.31,0.656,0.656,0,0,0-.313.88,38.521,38.521,0,0,1,3.05,8.98,38.11,38.11,0,0,1-5.637,29.06,38.816,38.816,0,0,1-24.733,16.61,39.426,39.426,0,0,1-42.24-19.53,0.677,0.677,0,0,0-.905-0.27,0.662,0.662,0,0,0-.272.9A40.578,40.578,0,0,0,724.914,5747a40.982,40.982,0,0,0,8.219-.84,40.112,40.112,0,0,0,25.579-17.17,39.42,39.42,0,0,0,5.829-30.06A39.977,39.977,0,0,0,761.388,5689.65Zm-75.214,28.32a0.668,0.668,0,0,0,.642.48,0.581,0.581,0,0,0,.184-0.02,0.664,0.664,0,0,0,.459-0.82c-0.265-.92-0.5-1.87-0.7-2.83a38.728,38.728,0,0,1,30.37-45.67,39.425,39.425,0,0,1,39.1,14.67,0.673,0.673,0,0,0,.935.13,0.649,0.649,0,0,0,.133-0.92,40.751,40.751,0,0,0-40.441-15.17,40.044,40.044,0,0,0-31.408,47.23C685.656,5716.04,685.9,5717.02,686.174,5717.97Zm13.584,13.02a1.22,1.22,0,0,0,.414,1.11,1.146,1.146,0,0,0,.82.36,1.133,1.133,0,0,0,.817-0.4l1.352-1.39-0.607-.58-1.349,1.38a0.368,0.368,0,0,1-.55.07,0.629,0.629,0,0,1-.145-0.54Zm5.639,5.28,0.774-3.23-0.66-.48-2.879,1.7,0.721,0.52,0.5-.3,0.953,0.69-0.144.57Zm-0.952-2.18,0.794-.49-0.239.9Zm4.37,0.69-1.434,2.68,0.751,0.4,0.41-.77,0.372,0.19a1.14,1.14,0,0,0,1.681-.35,1.086,1.086,0,0,0-.619-1.54Zm1.014,1.78a0.418,0.418,0,0,1-.619.13l-0.357-.18,0.379-.71,0.352,0.18A0.4,0.4,0,0,1,709.829,5736.56Zm2.724,2.72,1.112,0.4,0.023,0.58,0.856,0.31-0.175-3.32-0.77-.27-2.278,2.43,0.84,0.3Zm1.082-1.23,0.024,0.93-0.646-.23Zm4.521,0.29-0.778-.15-0.586,2.98,0.825,0.16,0.321-1.64,0.963,1.89,0.73,0.14,0.586-2.98-0.825-.16-0.31,1.57Zm6.6,1.45,0.032-.71-2.464-.11-0.137,3.03,2.486,0.11,0.033-.71-1.647-.08,0.022-.48,1.471,0.07,0.03-.67-1.471-.06,0.021-.46Zm3.517,1.5a1.663,1.663,0,0,1-1.023-.27l-0.418.6a2.194,2.194,0,0,0,1.477.36,1.053,1.053,0,0,0,1.139-1.1c-0.055-.57-0.512-0.75-1.227-0.84-0.432-.05-0.542-0.11-0.556-0.24a0.24,0.24,0,0,1,.286-0.23,1.563,1.563,0,0,1,.882.21l0.367-.63a1.945,1.945,0,0,0-1.293-.28,1.027,1.027,0,0,0-1.088,1.08c0.059,0.63.577,0.76,1.241,0.85,0.422,0.05.529,0.11,0.541,0.24S728.5,5741.26,728.274,5741.29Zm5.329-3.37-2.4.55,0.7,2.96,2.422-.56-0.165-.7-1.6.37-0.111-.47,1.433-.33-0.152-.64-1.433.33-0.105-.45,1.582-.36Zm6.264-1.66a0.885,0.885,0,0,1,.762.02l0.343-.7a1.522,1.522,0,0,0-1.441-.01,1.584,1.584,0,1,0,1.384,2.85,1.534,1.534,0,0,0,.909-1.21l-0.775-.13a0.834,0.834,0,0,1-.454.64,0.761,0.761,0,0,1-1.019-.41A0.752,0.752,0,0,1,739.867,5736.26Zm5.02-1.07a0.559,0.559,0,0,1-.838-0.21l-0.975-1.39-0.707.49,0.985,1.4a1.424,1.424,0,0,0,2.329-1.64l-0.973-1.38-0.707.49,0.988,1.41A0.533,0.533,0,0,1,744.887,5735.19Zm4.122-2.39-2.053-2.26-0.634.57,2.052,2.26Zm1.2-2.59,0.112,0.72a2.122,2.122,0,0,0,1.329-.74,1.038,1.038,0,0,0,.069-1.57c-0.437-.38-0.9-0.21-1.478.22-0.352.25-.468,0.29-0.573,0.2-0.089-.08-0.088-0.21.048-0.36a1.5,1.5,0,0,1,.793-0.45l-0.17-.7a1.906,1.906,0,0,0-1.138.67,1.014,1.014,0,0,0-.047,1.52c0.48,0.42.95,0.17,1.493-.22,0.347-.25.466-0.28,0.561-0.2,0.106,0.1.084,0.24-.067,0.41A1.62,1.62,0,0,1,750.205,5730.21Zm4.143-3.57-2.521-1.73-0.486.7,2.52,1.73Zm2.712-4.65-2.717-1.41-0.39.73,1.436,0.75-2.021.36-0.368.7,2.717,1.41,0.39-.74-1.49-.77,2.1-.38Zm1.824-4.66-0.682-.24-0.544,1.54-0.459-.16,0.486-1.38-0.633-.21-0.485,1.37-0.439-.15,0.537-1.52-0.683-.24-0.814,2.31,2.894,1Zm-16.8-29.62a0.6,0.6,0,0,0,.412.16,0.621,0.621,0,0,0,.414-1.09,27.112,27.112,0,0,0-5.121-3.51,0.632,0.632,0,0,0-.848.25,0.616,0.616,0,0,0,.257.84A26.435,26.435,0,0,1,742.085,5687.71ZM700.456,5697a0.561,0.561,0,0,0,.251.05,0.629,0.629,0,0,0,.574-0.37,25.971,25.971,0,0,1,3.543-5.78,0.615,0.615,0,0,0-.095-0.87,0.633,0.633,0,0,0-.881.1,26.8,26.8,0,0,0-3.713,6.05A0.618,0.618,0,0,0,700.456,5697Zm12.142,33.84a0.629,0.629,0,0,0,.555-0.33,0.618,0.618,0,0,0-.261-0.84,26.068,26.068,0,0,1-8.924-7.7,0.629,0.629,0,0,0-.875-0.14,0.622,0.622,0,0,0-.142.87,27.238,27.238,0,0,0,9.355,8.06A0.623,0.623,0,0,0,712.6,5730.84Zm35.667-10.62a0.637,0.637,0,0,0,.55-0.32,26.748,26.748,0,0,0,2.993-8.64,0.623,0.623,0,0,0-.519-0.71,0.631,0.631,0,0,0-.718.51,25.44,25.44,0,0,1-2.855,8.24,0.615,0.615,0,0,0,.248.84A0.658,0.658,0,0,0,748.265,5720.22Zm-45.81-33.43a0.542,0.542,0,0,0,.076.19,0.521,0.521,0,0,0,.459.23,4.041,4.041,0,0,1,2.306.76l0.747,3.69h0a1.88,1.88,0,0,0,.822,1.21,1.911,1.911,0,0,0,1.451.29s19.022-3.7,22.555-4.46c4.575-.98,5.856-5.17,5.141-8.7-0.741-3.65-3.722-6.94-7.951-6.27-3.29.53-22.8,4.39-22.8,4.39a1.986,1.986,0,0,0-1.229.82,1.869,1.869,0,0,0-.289,1.43l0.581,2.79a31.6,31.6,0,0,0-1.824,3.3A0.523,0.523,0,0,0,702.455,5686.79Zm5.658,5.35a0.886,0.886,0,0,1-1.044-.69h0l-0.561-2.77a16.679,16.679,0,0,0,8.132,2.18Zm5.142-2.43c-3.33-4.86-6.435-6.51-6.435-6.51a29.361,29.361,0,0,1,2.511-3.47,19.552,19.552,0,0,1,2.827-1.35,14.943,14.943,0,0,0-2.632,3.64,19.475,19.475,0,0,1,6.968,7c0.167,0.3.339,0.57,0.512,0.82A28.9,28.9,0,0,1,713.255,5689.71Zm4.435,0.09a14.149,14.149,0,0,1-.983-1.3c-3.4-5.03-6.673-6.69-6.673-6.69a29.118,29.118,0,0,1,2.781-3.68c0.807-.29,1.7-0.57,2.679-0.85a14.925,14.925,0,0,0-2.759,3.52,18.425,18.425,0,0,1,6.694,6.19l0.538,2.65C719.156,5689.72,718.407,5689.77,717.69,5689.8Zm7.859-7.39a15.1,15.1,0,0,1,2.142,2.72,5.77,5.77,0,0,0,2.862,2.58c-1.326.33-2.577,0.61-3.756,0.85Zm-1.421-7,0.022-.03c0.907-.16,1.86-0.32,2.86-0.49a17.754,17.754,0,0,0-2.369,3.04Zm-6.042,4.96a9.815,9.815,0,0,0-1.338-.82s0.331-.49.92-1.24Zm13.038,7.17a8.815,8.815,0,0,1-3.214-2.88,24.724,24.724,0,0,0-2.486-2.87l-0.72-3.55a17.389,17.389,0,0,1,6.817,5.72A6.217,6.217,0,0,0,733.6,5686,5.7,5.7,0,0,1,731.124,5687.54Zm3.864-7.33a7.96,7.96,0,0,1,.157,1.7,17.852,17.852,0,0,0-6.356-5.02,26.376,26.376,0,0,1,1.618-2.1A6.793,6.793,0,0,1,734.988,5680.21Zm-4.944-5.5a11.043,11.043,0,0,0-1.758,2.39,17.271,17.271,0,0,1,6.822,5.44,6.057,6.057,0,0,1-1.17,3.07,10.726,10.726,0,0,1-2.21-2.12,18.393,18.393,0,0,0-6.7-5.54,28.253,28.253,0,0,1,2.474-3.14l0.746-.12A5.4,5.4,0,0,1,730.044,5674.71Zm-12.469,3.14a9.373,9.373,0,0,0-1.336,1.9,16.27,16.27,0,0,1,1.969,1.22l1.014,5a18.561,18.561,0,0,0-5.978-5.37,28.927,28.927,0,0,1,2.835-3.48c0.413-.11.836-0.22,1.281-0.33Zm-12.675,1.58a0.886,0.886,0,0,1,.564-0.38l4.628-.91q-0.4.2-.764,0.39a13.154,13.154,0,0,0-4.174,3.47l-0.388-1.92A0.839,0.839,0,0,1,704.9,5679.43Zm3.462,0.93a13.348,13.348,0,0,0-2.049,3.05,20.374,20.374,0,0,1,6.412,6.24,15.089,15.089,0,0,1-6.419-2.29,7.427,7.427,0,0,0-2.523-1.13A14.573,14.573,0,0,1,708.362,5680.36Zm38.815,44.45a2.49,2.49,0,0,0-.428-1.29,2.57,2.57,0,0,0,.232-1.85,2.631,2.631,0,0,0-1.06-1.55,2.445,2.445,0,0,0-.052-0.88,2.345,2.345,0,0,0-.161-0.45,2.384,2.384,0,0,0-1.36-1.25,2.2,2.2,0,0,0-1.162-.08l-0.162-.67h0a1.834,1.834,0,0,0-.847-1.15,1.924,1.924,0,0,0-1.425-.23s-15.927,3.81-15.97,3.83c-2.457.38-4.981,0.89-7.38,1.46-4.234,1.01-4.165,3.42-3.746,5.14,0.138,0.57.334,1.13,0.524,1.68a12.561,12.561,0,0,1,.536,1.82,0.2,0.2,0,0,0,.01.04c0,0.02.009,0.04,0.014,0.06a12.526,12.526,0,0,1,.362,1.86c0.083,0.57.17,1.16,0.308,1.73,0.419,1.72,1.466,3.88,5.7,2.87,2.387-.57,4.867-1.27,7.237-2.06,0.048,0,15.962-3.78,15.962-3.78a1.866,1.866,0,0,0,1.166-.84,1.834,1.834,0,0,0,.225-1.41l-0.164-.68a2.1,2.1,0,0,0,1.006-.6A2.351,2.351,0,0,0,747.177,5724.81Zm-6.188-8.42a0.883,0.883,0,0,1,.654.11,0.833,0.833,0,0,1,.389.53h0l0.2,0.83a34.5,34.5,0,0,0-3,1.79c-1.255-.93-3.86-1.24-7.105-1.14Zm-20.12,18.53c-3.444.82-4.113-.67-4.47-2.13-0.126-.52-0.209-1.09-0.289-1.64a13.61,13.61,0,0,0-.389-1.98c0-.01,0-0.02-0.007-0.03a13.641,13.641,0,0,0-.571-1.95c-0.182-.52-0.37-1.07-0.5-1.59-0.357-1.46-.45-3.09,3-3.92,0.15-.03.3-0.06,0.444-0.1-1.361,1.97-.871,4.43-0.4,6.62,0.112-.03.226-0.05,0.344-0.08-0.473-2.24-.7-4.71.718-6.69,0.981-.22,1.944-0.42,2.893-0.61-1.5,1.87-.875,4.3-0.413,6.47l0.343-.09c-0.468-2.22-.75-4.65.8-6.52,0.184-.03.375-0.08,0.558-0.11l3.155,12.93c-0.119.04-.24,0.08-0.36,0.11-2.4-.9-3.31-3.27-3.938-5.53-0.115.02-.229,0.05-0.343,0.08,0.607,2.21,1.189,4.75,3.576,5.66-0.987.29-2,.56-3.038,0.82-2.181-1.11-3.118-3.41-3.731-5.63l-0.341.09c0.591,2.16,1.29,4.57,3.413,5.71C721.166,5734.84,721.019,5734.88,720.869,5734.92Zm23.736-6.23a0.837,0.837,0,0,1-.536.39l-9.126,2.17c2.942-1.38,5.163-2.87,5.952-4.3a32.793,32.793,0,0,0,3.609.25l0.2,0.85A0.822,0.822,0,0,1,744.605,5728.69Zm1.2-2.85a1.126,1.126,0,0,1-.82.36,30.708,30.708,0,0,1-4.306-.31,0.521,0.521,0,0,0-.56.33,4.462,4.462,0,0,1-1.507,1.73c-0.94-.87-1.185-2.29-1.478-3.47-0.085.02-.178,0.04-0.277,0.06,0.285,1.21.333,2.84,1.351,3.72a18.068,18.068,0,0,1-1.6,1,7.784,7.784,0,0,1-2.112-4.15l-0.258.06c0.384,1.48.707,3.3,1.93,4.33-0.467.26-.966,0.51-1.5,0.77-1.5-.97-2.065-2.82-2.5-4.44a2.47,2.47,0,0,1-.258.07c0.418,1.6.754,3.62,2.27,4.59-0.548.25-1.124,0.51-1.73,0.76l-2.829-11.6c0.792-.07,1.543-0.11,2.258-0.14-1.3,1.6-.582,3.76-0.181,5.52l0.257-.06c-0.4-1.79-.785-3.88.441-5.48,0.481-.01.942-0.01,1.38-0.01-0.671,1.5-.1,3.31.245,4.82l0.258-.06c-0.339-1.52-.67-3.27,0-4.74a16.948,16.948,0,0,1,1.886.15c-0.6,1.26.157,2.79,0.469,4.03,0.1-.02.192-0.05,0.277-0.07-0.293-1.22-.758-2.65-0.251-3.87a0.31,0.31,0,0,0-.094-0.02,4.049,4.049,0,0,1,2.244.92,0.516,0.516,0,0,0,.677.07,31.525,31.525,0,0,1,3.617-2.17,1.209,1.209,0,0,1,.9-0.05,1.369,1.369,0,0,1,.774.72,1.458,1.458,0,0,1,.105.35,25.53,25.53,0,0,0-5.382,2.56,29.831,29.831,0,0,1,4.608-1.91,1.749,1.749,0,0,1,.754-0.02,0.248,0.248,0,0,1-.009.04,0.516,0.516,0,0,0,.271.61,1.613,1.613,0,0,1,.588,2.41,0.484,0.484,0,0,0-.091.42,0.444,0.444,0,0,0,.127.23c0.008,0.01.013,0.02,0.02,0.03a1.773,1.773,0,0,1-.672.32,29.822,29.822,0,0,1-4.983.39,26.151,26.151,0,0,0,5.971-.16,1.468,1.468,0,0,1,.069.37A1.336,1.336,0,0,1,745.8,5725.84Zm-52.57-14.91a2.607,2.607,0,0,1,.392-0.03,1.754,1.754,0,0,1,1.724,1.57,0.524,0.524,0,0,0,.632.43,0.5,0.5,0,0,0,.391-0.44,1.282,1.282,0,0,0-.033-0.35,2.77,2.77,0,0,0-2.686-2.19,2.626,2.626,0,0,0-.622.05,3.809,3.809,0,0,0-2.46,1.66,4.016,4.016,0,0,0-.595,3.06,4.1,4.1,0,0,0,4.116,3.17,5.688,5.688,0,0,0,4.606-2.28,4.538,4.538,0,0,0,.632-3.57,9.545,9.545,0,0,0-2.025-3.64,14.429,14.429,0,0,1-1.216-1.74,2.8,2.8,0,0,0,1.716-2.82,1.312,1.312,0,0,0-1.577-1.17,1.831,1.831,0,0,0-1.215.81,3.064,3.064,0,0,0-.37,2.27,3.272,3.272,0,0,0,.1.36c-0.22.06-.432,0.11-0.678,0.16a4.907,4.907,0,0,1-5.088-1.76,0.519,0.519,0,0,0-.509-0.18,0.572,0.572,0,0,0-.344.22,0.437,0.437,0,0,0-.063.34,0.668,0.668,0,0,0,.1.22,5.994,5.994,0,0,0,6.145,2.11c0.3-.06.57-0.12,0.836-0.19a16.539,16.539,0,0,0,1.343,1.95,8.771,8.771,0,0,1,1.838,3.26,3.707,3.707,0,0,1-.511,2.87,4.512,4.512,0,0,1-3.672,1.79,3.061,3.061,0,0,1-3.145-2.33,3.14,3.14,0,0,1,.461-2.4A2.775,2.775,0,0,1,693.231,5710.93Zm2.432-5.42a2.22,2.22,0,0,1,.2-1.56,0.75,0.75,0,0,1,.493-0.34,0.334,0.334,0,0,1,.1-0.01c0.064,0,.26,0,0.346.4,0.049,0.23.193,0.9-1.088,1.7C695.69,5705.63,695.676,5705.56,695.663,5705.51Zm6.276,0.39a0.481,0.481,0,0,0-.1-0.39,0.523,0.523,0,0,0-.512-0.16,0.485,0.485,0,0,0-.4.38l-0.151.84c-0.729,4.04-.925,5.12-0.742,5.98a1.779,1.779,0,0,0,1.762,1.63,2.538,2.538,0,0,0,.586-0.06,2.945,2.945,0,0,0,1.954-1.53,1.4,1.4,0,0,0,1.653.85c0.887-.17,1.512-0.8,2.039-2.15a3.007,3.007,0,0,0,2.426,1.23,3.729,3.729,0,0,0,.665-0.06,3.274,3.274,0,0,0,2.853-3.92,5.492,5.492,0,0,0-1.664-2.6q-0.26-.285-0.567-0.63a3.406,3.406,0,0,0,.57-2.33,1.064,1.064,0,0,0-1.228-.82,1.258,1.258,0,0,0-.844.58,1.972,1.972,0,0,0-.251,1.51,2.94,2.94,0,0,0,.506,1.09c-0.152.22-.289,0.44-0.462,0.73a0.5,0.5,0,0,0,.192.67,0.527,0.527,0,0,0,.381.05,0.54,0.54,0,0,0,.35-0.26,2.764,2.764,0,0,1,.2-0.35c1.224,1.32,1.627,1.8,1.8,2.53a2.51,2.51,0,0,1-2.5,2.83,1.85,1.85,0,0,1-1.857-1.4,1.717,1.717,0,0,1,1.289-2.11,0.747,0.747,0,0,1,.15-0.01,1.03,1.03,0,0,1,.94.78,0.508,0.508,0,0,0,.6.38,0.525,0.525,0,0,0,.336-0.21,0.481,0.481,0,0,0,.066-0.37,2.073,2.073,0,0,0-1.935-1.56,2.466,2.466,0,0,0-2.345,1.71,0.031,0.031,0,0,0-.008.02l-0.015.06a3.369,3.369,0,0,0-.088.36c-0.561,2.24-1.065,3.14-1.812,3.29a0.684,0.684,0,0,1-.138.01c-0.166,0-.349-0.07-0.455-0.56a16.872,16.872,0,0,1,.345-3.92q0.081-.48.177-1.08c0.088-.55.186-1.17,0.3-1.81a0.457,0.457,0,0,0-.1-0.37,0.548,0.548,0,0,0-.53-0.18,0.5,0.5,0,0,0-.4.39l-0.181,1.13a48.31,48.31,0,0,1-.937,4.94c-0.339,1.23-.938,1.99-1.687,2.13a0.886,0.886,0,0,1-1.138-.81c-0.123-.57-0.052-0.98.5-4.15C701.654,5707.55,701.786,5706.8,701.939,5705.9Zm9.156-1.55a1.571,1.571,0,0,1-.1-0.31,0.963,0.963,0,0,1,.1-0.75,0.468,0.468,0,0,1,.174-0.16,0.167,0.167,0,0,1,.024.06A2.289,2.289,0,0,1,711.1,5704.35Zm12.895-4.02a0.952,0.952,0,0,0,.169-0.02,0.75,0.75,0,0,0,.5-0.32,0.672,0.672,0,0,0,.1-0.53,0.782,0.782,0,0,0-1.41-.23,0.661,0.661,0,0,0-.1.52A0.771,0.771,0,0,0,723.99,5700.33Zm-5.089,8.99a1.471,1.471,0,0,0,1.8,1.31,2.425,2.425,0,0,0,1.769-1.53,1.434,1.434,0,0,0,1.312.91,2.2,2.2,0,0,0,.357-0.03c1.638-.32,2.234-2.29,2.749-4.48a0.608,0.608,0,0,0,0-.2,0.5,0.5,0,0,0-.413-0.38h-0.034a0.414,0.414,0,0,0-.157,0,0.535,0.535,0,0,0-.414.38l-0.009.04c-0.374,1.55-.84,3.47-1.925,3.68a0.689,0.689,0,0,1-.139.01c-0.165,0-.348-0.07-0.454-0.57-0.144-.67-0.019-1.48.579-5.42l0.207-1.36a0.437,0.437,0,0,0-.1-0.37,0.549,0.549,0,0,0-.514-0.16,0.488,0.488,0,0,0-.392.41l-0.016.08c-0.227,1.26-.52,2.88-0.691,4.3a0.041,0.041,0,0,1-.007.02c-0.6,2.55-1.114,3.56-1.915,3.71a0.337,0.337,0,0,1-.139.01c-0.165,0-.349-0.07-0.454-0.56a9.271,9.271,0,0,1,.168-2.66,9.659,9.659,0,0,0,.168-2.88,1.7,1.7,0,0,0-2.253-1.41,2.311,2.311,0,0,0-1.335.86c0.218-1.42.377-2.5,0.457-3.07a0.455,0.455,0,0,0-.1-0.37,0.517,0.517,0,0,0-.51-0.18,0.5,0.5,0,0,0-.416.4c-0.216,1.58-.777,5.17-1.426,9.33l-0.318,2.04a0.462,0.462,0,0,0,.089.35,0.542,0.542,0,0,0,.361.21h0.029a0.52,0.52,0,0,0,.542-0.44c0.1-.61.182-1.14,0.258-1.63,0.5-3.17.62-3.93,1.375-5.34a2.149,2.149,0,0,1,1.2-1.2,0.777,0.777,0,0,1,1.045.65,7.681,7.681,0,0,1-.168,2.49A8.915,8.915,0,0,0,718.9,5709.32Zm36.618-6.99a1.52,1.52,0,0,0,1.423,1.36,1.785,1.785,0,0,0,.379-0.04c1.3-.25,2.043-1.46,2.729-4.47a0.557,0.557,0,0,0,0-.2,0.525,0.525,0,0,0-.413-0.38,0.737,0.737,0,0,0-.21,0,0.51,0.51,0,0,0-.395.38c-0.6,2.58-1.1,3.55-1.915,3.71a0.524,0.524,0,0,1-.122.01c-0.087,0-.352-0.01-0.47-0.56a3.961,3.961,0,0,1-.038-0.98c0.017-.46.377-3.17,0.494-3.79a0.511,0.511,0,0,0-.431-0.59c-0.2-.03-0.452-0.06-0.762-0.08l-0.221-.03c-0.487-.06-1.035-0.13-1.513-0.24l0.027-.25a2.52,2.52,0,0,0,.017-0.88,1.227,1.227,0,0,0-1.47-1.05,1.288,1.288,0,0,0-.822.53,1.262,1.262,0,0,0-.165.98,1.881,1.881,0,0,0,1.26,1.34l-0.093.48-0.662,2.66a0.333,0.333,0,0,0-.03.07l-0.008.05c-0.324,1.37-.814,3.44-1.9,3.65a0.762,0.762,0,0,1-.146.01c-0.17,0-.341-0.07-0.447-0.56a14.433,14.433,0,0,1,.326-3.74l0.519-3.13a0.453,0.453,0,0,0-.1-0.38,0.508,0.508,0,0,0-.5-0.17,0.49,0.49,0,0,0-.415.39l-0.03.16c-0.026.15-.055,0.3-0.083,0.47a2,2,0,0,0-1.857-.48,2.765,2.765,0,0,0-1.707,1.29,9.156,9.156,0,0,0-1.147,6.1,1.9,1.9,0,0,0,1.7,1.74,1.652,1.652,0,0,0,.377-0.04,2.986,2.986,0,0,0,1.978-1.73,1.441,1.441,0,0,0,1.723,1.03c1.731-.33,2.291-2.63,2.7-4.32l0.025-.12,0.384-1.55c0.263-1.06.345-1.39,0.38-1.57a15.019,15.019,0,0,0,1.979.28c-0.107.64-.389,2.86-0.416,3.43A4.056,4.056,0,0,0,755.519,5702.33Zm-6.7-2.63c-0.352,1.89-.885,4.74-2.336,5.02a0.67,0.67,0,0,1-.139.01c-0.349-.01-0.584-0.35-0.741-1.08-0.336-1.75.431-5.76,2.075-6.11a2.122,2.122,0,0,1,.249-0.02,1.191,1.191,0,0,1,1.1.98Zm4.244-3.64a0.966,0.966,0,0,1-.43-0.57,0.249,0.249,0,0,1,.022-0.18,0.263,0.263,0,0,1,.175-0.1h0.039a0.286,0.286,0,0,1,.218.27A2.137,2.137,0,0,1,753.065,5696.06Zm-14.3,12.16a5.592,5.592,0,0,0,1.128-.11,4.224,4.224,0,0,0,2.78-1.76,4.174,4.174,0,0,0,.567-3.23,4.518,4.518,0,0,0-1.567-2.61l-0.313-.23a4.191,4.191,0,0,0,1.256-3.71,3.849,3.849,0,0,0-3.966-3.09,5.436,5.436,0,0,0-1.129.1,6.156,6.156,0,0,0-4.12,2.5,7.012,7.012,0,0,0-.758,5.47,0.515,0.515,0,0,0,.6.38,0.541,0.541,0,0,0,.357-0.22,0.453,0.453,0,0,0,.065-0.35c-0.486-2.67-.181-6.01,4.035-6.82a4.538,4.538,0,0,1,.894-0.08,2.887,2.887,0,0,1,3,2.27,3.262,3.262,0,0,1-1.215,3.07,4.482,4.482,0,0,0-1.464-.24,4.805,4.805,0,0,0-.962.07,1.136,1.136,0,0,0-.767.45,0.929,0.929,0,0,0-.112.74,0.961,0.961,0,0,0,1.061.78,4.169,4.169,0,0,0,.784-0.08,6.415,6.415,0,0,0,1.573-.6,3.457,3.457,0,0,1,1.707,2.37,3.309,3.309,0,0,1-.417,2.56,3.118,3.118,0,0,1-2.1,1.3,4.862,4.862,0,0,1-.907.09,1.637,1.637,0,0,1-1.759-1.09,1.092,1.092,0,0,1,.166-0.83,1.012,1.012,0,0,1,.655-0.45,1.23,1.23,0,0,1,1.153.67,0.522,0.522,0,0,0,.546.23,0.535,0.535,0,0,0,.385-0.3,0.462,0.462,0,0,0-.044-0.44,2.216,2.216,0,0,0-2.26-1.11,2.071,2.071,0,0,0-1.313.87,2.02,2.02,0,0,0-.3,1.56A2.557,2.557,0,0,0,738.767,5708.22Zm-0.588-7.6H738.1a0.328,0.328,0,0,1,.134-0.04c0.067-.01.275-0.02,0.5-0.03A2.839,2.839,0,0,1,738.179,5700.62Zm-6.31,3.16a1.69,1.69,0,0,1,.207-0.02h0.07l0.033,0.01a0.527,0.527,0,0,0,.407-0.19,0.493,0.493,0,0,0,.1-0.42,0.525,0.525,0,0,0-.447-0.38,1.5,1.5,0,0,0-.6.03,2.636,2.636,0,0,0-1.69,1.18,3.14,3.14,0,0,0-.476,2.39,2.587,2.587,0,0,0,2.629,2,3.891,3.891,0,0,0,.754-0.07c3.21-.61,3.583-4.3,3.943-7.88l0.018-.16a21.32,21.32,0,0,1,.583-3.62,1.743,1.743,0,0,1,.879-1.1,0.514,0.514,0,0,0,.285-0.63,0.528,0.528,0,0,0-.587-0.3,2.61,2.61,0,0,0-1.582,1.76,22.55,22.55,0,0,0-.611,3.93l-0.027.27c-0.275,2.81-.617,6.3-3.122,6.78a2.4,2.4,0,0,1-.53.04,1.551,1.551,0,0,1-1.632-1.25,2.138,2.138,0,0,1,.339-1.61A1.683,1.683,0,0,1,731.869,5703.78Z" transform="translate(-679 -5667)"/>
</svg>
