<svg xmlns="http://www.w3.org/2000/svg" width="44.938" height="50.031" viewBox="0 0 44.938 50.031">
  <defs>
    <style>
      .cls-1 {
        fill: #db3135;
        fill-rule: evenodd;
      }
    </style>
  </defs>
  <path id="style" class="cls-1" d="M393.91,395.74c0.738-.173,1.481-0.307,2.228-0.417a0.691,0.691,0,0,0-.97.055,2.889,2.889,0,0,0-1.479.384,1.832,1.832,0,0,0-1.352.34C392.861,395.993,393.383,395.864,393.91,395.74Zm6.22-.83a0.542,0.542,0,0,0-.87.073Zm-8.078,1.248a1.29,1.29,0,0,0-.916.147C391.443,396.266,391.748,396.216,392.052,396.158Zm5.57,0.7c-1.985.225-3.951,0.865-5.939,1.132,0.249,0.316.508,0.455,0.767,0.114,0.814,1.4,1.046,1.142,1.275,2.319,0.1,0,.182,1.238.24,1.036a5.884,5.884,0,0,1,2.6-.572c0.772,0.54,1.417-2.2,1.835-1.934a1.128,1.128,0,0,0,.675-0.715c0.464-.224.929-1.889,1.219-1.395a1.977,1.977,0,0,0,.124-0.243C399.484,396.68,398.551,396.753,397.622,396.858Zm0.134,2.719c0.008-.5.033-1,0.065-1.491l0.152,0.013,0.078,0.009c0.156,0.028.31,0.063,0.463,0.1Q398.109,398.876,397.756,399.577Zm12.979-3.907c-0.225,0-.45-0.009-0.675-0.014l0.255,0.033,0.508,0.07-0.019-.01A0.929,0.929,0,0,0,410.735,395.67Zm-19.776,2.956a0.718,0.718,0,0,1-.1.312c0.16,0.2.319,0.4,0.478,0.6A8.635,8.635,0,0,1,390.959,398.626Zm11.62,3.7c0-.02,0-0.042-0.008-0.062a1.131,1.131,0,0,0-.509.136C402.236,402.377,402.408,402.353,402.579,402.322ZM416,414.733c-0.012-.39-0.031-1.291-0.055-1.717-0.024-.581-0.053-1.063-0.086-1.713-0.034-.357-0.071-0.871-0.11-1.713-0.039-.615-0.081-0.98-0.124-1.711-0.042-.553-0.086-1.231-0.129-1.712-0.043-.458-0.086-1.187-0.127-1.712-0.04-.615-0.079-1-0.115-1.713-0.031-.829-0.054-1.094-0.073-1.481-0.019-.612-0.033-1.136-0.044-1.483-0.012-.5-0.021-0.668-0.029-1.483,0-.038,0-0.079,0-0.122a5.033,5.033,0,0,0,.264-1.686,1.346,1.346,0,0,1-1.19,1.177,14.691,14.691,0,0,1-4.136-.287,41.515,41.515,0,0,0-4.572-.37,19.283,19.283,0,0,0-3.483,2.961,0.711,0.711,0,0,0,.658-0.109,2.914,2.914,0,0,1,.5.018,17.1,17.1,0,0,1,2.863-.825,0.868,0.868,0,0,1,1.044,1.061,5.061,5.061,0,0,1-2.707,3.471,10.464,10.464,0,0,1-4.341.566c-0.332,0-.663,0-1,0a10.285,10.285,0,0,1,.353,2.277,2.374,2.374,0,0,1,1.184.032c0.349,0.991.707-.031,1.069,0.039,0.642,0.047,1.357-1.12,2.085-.81a0.8,0.8,0,0,1,.832-0.457,4.556,4.556,0,0,1,3.829-.459,4.657,4.657,0,0,1,2.592,3.582,0.876,0.876,0,0,1-.819,1.092,8.182,8.182,0,0,1-1.8-.082c-1.659.683-4.664,0.236-5.736,0.2-1.1-.038-2.245-0.059-3.387-0.009q-0.045.384-.1,0.758a31.513,31.513,0,0,1-.859,3.2c0,0.128,0,.3,0,0.537-0.029.491-.007,1.243,0.021,1.886,0.019,0.953.04,1.953,0.049,2.168q0-.139,0-0.27a0.517,0.517,0,1,1,0,.27c-0.014.815-.064,1.785-0.183,1.564-0.133.888-.351,0.148-0.7,1.69-0.349-.036-1.162-0.084-1.627-0.118a0.593,0.593,0,0,1-.156-0.175,0.731,0.731,0,0,1-.912.045c-2.2-1.416-.933-5.376-0.528-7.4a27.193,27.193,0,0,0,.5-3.411c-1.986.716-3.678,2.126-5.713,2.756a0.843,0.843,0,0,1-.959-0.4c-0.594-1.113-1.595-1.923-2.157-3.063a4.56,4.56,0,0,1-.764-1.686c1.278,0.059,2.556.088,3.834,0.029,0.639-.029,1.278.081,1.918,0.081a3.2,3.2,0,0,0,1.919-.583,0.858,0.858,0,0,1,1.231-.22,0.491,0.491,0,0,0,.518-0.047,6.11,6.11,0,0,0-1.418-2.838,11,11,0,0,0-4.677,1.372,0.853,0.853,0,0,1-1.248-.516,0.914,0.914,0,0,0-.49-0.718c-0.936-.4-0.605-1.9.28-1.718a0.916,0.916,0,0,1,.153-0.055,38.494,38.494,0,0,1,3.888-.8c-0.864-1.09-1.738-2.171-2.6-3.266-1.695.182-3.395,0.317-5.111,0.353a0.743,0.743,0,0,1-1.024,0,0.771,0.771,0,0,1-.429-0.165h-0.008a0.326,0.326,0,0,1-.032-0.034,0.74,0.74,0,0,1-.076-0.083,0.744,0.744,0,0,0-.278-0.173,0.92,0.92,0,0,1-1.116-.84,15.634,15.634,0,0,1-.815-1.349,2.5,2.5,0,0,0,1.77.034c0.057,0.027.113,0.047,0.17,0.068a6.466,6.466,0,0,1,1.8-.306,1.286,1.286,0,0,1,1.54-.158c0.1,0.028.2,0.062,0.307,0.094q0.5-.016,1.01-0.022a1.479,1.479,0,0,0,.433-0.462,2.41,2.41,0,0,0,2.345-.486,16.668,16.668,0,0,1,2.637-.488,3.283,3.283,0,0,1,2.572-.578v-3.559a2.161,2.161,0,0,0-1.736.268c-0.572.225-1.139-.2-1.7-0.148-0.017-.011-0.034-0.02-0.05-0.032q-0.289.129-.572,0.274a0.9,0.9,0,0,1-1.285-.871c-0.951.237-1.326-1.327-.345-1.7a49.783,49.783,0,0,1,5.2-1.46,9.1,9.1,0,0,0-.395-2.088c-0.11-.275-0.223-0.549-0.336-0.824a4.231,4.231,0,0,0-.507-0.79,0.936,0.936,0,0,1,.515-1.494,1.157,1.157,0,0,0-.016-0.17,1.265,1.265,0,0,0,.2.159,0.664,0.664,0,0,1,.355.143h0.006a0.689,0.689,0,0,1,.624-0.22c0.155,0.016.317,0.036,0.484,0.058a1.512,1.512,0,0,1,.347-0.029,1.062,1.062,0,0,1,1.19.335c0.244,0.066.487,0.141,0.726,0.226h0.006a0.013,0.013,0,0,1,.008.006,3.757,3.757,0,0,1,2.787,2.837,6.779,6.779,0,0,1,.061,1,12.207,12.207,0,0,1,2.634-.3,5.8,5.8,0,0,1,1.157-.014c0.833-.172,1.668-0.33,2.51-0.456a0.868,0.868,0,0,1,.959,1.267,7.517,7.517,0,0,1-1.023,1.834,3.912,3.912,0,0,1-2.518.594c-1.283.069-2.573,0.083-3.861,0.116q-0.147.067-.291,0.138a23.682,23.682,0,0,1-1.215,4.156,0.97,0.97,0,0,1-.147.25c0.243,0.05.486,0.125,0.73,0.154a0.84,0.84,0,0,1,.332-0.065h0.648a1,1,0,0,1,1.115-.131c1.667-.384,3.352-0.709,5.033-0.939a10.987,10.987,0,0,1,2.8-.3,1.314,1.314,0,0,1,1.083-.034,4.776,4.776,0,0,0,.479.157q0.385,0.039.763,0.108a2.234,2.234,0,0,0,.355-0.027,2.236,2.236,0,0,1,1.483.6,5.852,5.852,0,0,1,2.221,1.806,2.254,2.254,0,0,1,.312.585,5.817,5.817,0,0,0-.241-0.868c-0.009-.237-0.019-0.487-0.03-0.74-0.025-.182-0.055-0.855-0.088-1.544-0.032-.269-0.067-1.042-0.1-1.557-0.036-.392-0.072-0.949-0.107-1.567-0.034-.413-0.067-1-0.1-1.572-0.022-.531-0.042-0.889-0.059-1.225a3.188,3.188,0,0,0,.119-0.871,3.115,3.115,0,0,0-.177-1.025v-0.02c-0.007-.559-0.006-1.138.005-1.561,0.01-.6.031-1.034,0.064-1.548-1.074-.124-2.152-0.208-3.232-0.261-0.54-.026-1.08-0.015-1.621-0.058-0.541.042-1.083-.083-1.624-0.023a12.086,12.086,0,0,1-1.626.006,9.825,9.825,0,0,1-1.627.025c-0.542-.1-1.084.094-1.626,0.036a4.32,4.32,0,0,1-1.626.038,5.23,5.23,0,0,0-1.623.033,5.471,5.471,0,0,0-1.621.017,10.378,10.378,0,0,1-1.616-.006c-0.555-.218-1.111.124-1.666-0.029-0.555.317-1.112-.162-1.667-0.04a2.177,2.177,0,0,1-1.669-.043,3.5,3.5,0,0,1-1.668-.036,4.183,4.183,0,0,0-1.668-.023,1.289,1.289,0,0,1-1.667,0,6.11,6.11,0,0,0-1.665.03c-0.555-.189-1.11.4-1.663,0.068a2.437,2.437,0,0,1-1.661.116,2.922,2.922,0,0,1-1.657.171,10.645,10.645,0,0,0-1.653.234,7.968,7.968,0,0,1,.3,1.309c0.079,0.466.139,1.125,0.181,1.336,0.042,0.434.067,0.908,0.076,1.337,0.012,0.639.014,1.074,0.011,1.547,0,0.507-.015,1.057-0.03,1.546-0.012.473-.029,0.894-0.046,1.348-0.023.145-.044,0.291-0.062,0.438a19.379,19.379,0,0,0-.1,3.506c-0.01.3-.02,0.6-0.027,0.89-0.013.368-.025,0.993-0.033,1.561-0.01.621-.016,1-0.022,1.561s-0.009,1.129-.012,1.562c0,0.694,0,1.114,0,1.561s0,1.037,0,1.561c0,0.611,0,.971,0,1.562l0,1.561c0,0.521,0,1.041,0,1.562a92.306,92.306,0,0,1-.432,9.742c-0.033.312-.111,0.77-0.174,1.272a9.1,9.1,0,0,0-.092,1.535,1.866,1.866,0,0,0,.341,1.184,3.63,3.63,0,0,0,1.118.582,3.5,3.5,0,0,1,1.258.153,4.273,4.273,0,0,1,1.444.034,14.269,14.269,0,0,1,1.446-.059,9.793,9.793,0,0,1,1.448-.1,14.342,14.342,0,0,1,1.448-.093,4.259,4.259,0,0,1,1.446-.036,14.836,14.836,0,0,1,1.578.019,7.64,7.64,0,0,0,1.578.032,10.534,10.534,0,0,1,1.578.044,15.687,15.687,0,0,0,1.577.053,10.149,10.149,0,0,0,1.577.057,10.285,10.285,0,0,0,1.578.06,4.868,4.868,0,0,1,1.578.06,3.8,3.8,0,0,0,1.513.046c0.5-.026,1.01.015,1.515,0.031a4.721,4.721,0,0,1,1.514.027,8.909,8.909,0,0,1,1.514.032,6.338,6.338,0,0,0,1.513.05,2.725,2.725,0,0,0,1.511.075,13,13,0,0,1,1.511.113,6.513,6.513,0,0,0,1.325.114,3.4,3.4,0,0,0,1.329.084,2.415,2.415,0,0,1,1.33.015,0.3,0.3,0,0,0,.536-0.016c0.193,0.063.395,0.286,0.6-.042,0.026,0.212.053,0.054,0.085-.16,0.147-.183.284-0.276,0.4-0.447,0.118,0.18.217-.292,0.289-0.324a1.819,1.819,0,0,1,.26-0.846,5.348,5.348,0,0,0,.114-0.622,1.633,1.633,0,0,1,.076-0.628,9.176,9.176,0,0,0,.083-0.98c0.021-.323.037-0.452,0.048-0.98,0.011-.118.017-1.076,0.018-0.984C416.016,415.812,416.011,415.192,416,414.733Zm-16.071.436c0.053-.085.1-0.172,0.155-0.26,0.179-.316.324-0.655,0.476-0.989,0.025,0.014.051,0.027,0.076,0.042,0.374,0.216.733,0.469,1.1,0.708l0.745,0.488C401.626,415.172,400.776,415.181,399.927,415.169Zm16.151-37.947c0,0.186-.067.6-0.2,0-0.13.411-.322,0.14-0.57,0-0.248.084-.552,0.7-0.907,0-0.355.15-.761-0.208-1.212,0a10.919,10.919,0,0,1-1.482,0,14.9,14.9,0,0,1-1.718,0,3.057,3.057,0,0,0-1.922,0,5.288,5.288,0,0,1-2.09,0c-0.722-.046-1.466,0-2.226,0a7.1,7.1,0,0,1-2.328,0,6.148,6.148,0,0,1-2.4,0c-0.805-.4-1.617-0.044-2.428,0-0.812.023-1.623-.394-2.429,0a4.269,4.269,0,0,0-2.4,0c-0.789-.2-1.566.306-2.327,0a21.186,21.186,0,0,1-2.226,0,7.785,7.785,0,0,1-2.091,0,2.016,2.016,0,0,0-1.921,0c-0.609.169-1.183-.285-1.719,0a3.71,3.71,0,0,1-1.482,0c-0.451-.333-0.857.147-1.212,0-0.354.059-.659,0.324-0.907,0-0.248-.175-0.439-0.228-0.569,0-0.13.776-.2-0.339-0.2,0-0.427-.011-0.834-0.481-1.2.266-0.37-.721-0.7.3-0.983,0.725a11.535,11.535,0,0,0-.663,1.076,2.658,2.658,0,0,0-.244,1.318v42.876a2.677,2.677,0,0,0,.244,1.318c0.156,0.367.383,1.233,0.663,1.076a6.817,6.817,0,0,1,.983.725,9.71,9.71,0,0,1,1.2.266c0-.136.067-0.339,0.2,0s0.321-.094.569,0c0.248-.242.553,0.211,0.907,0a5.048,5.048,0,0,1,1.212,0,12.611,12.611,0,0,0,1.482,0,5.242,5.242,0,0,0,1.719,0,11.4,11.4,0,0,1,1.921,0c0.671-.02,1.369.042,2.091,0,0.721-.077,1.465.1,2.226,0a5.735,5.735,0,0,0,2.327,0c0.789,0.2,1.589-.146,2.4,0a7.471,7.471,0,0,1,2.429,0c0.811,0.027,1.623,0,2.428,0a3.021,3.021,0,0,1,2.4,0,11.391,11.391,0,0,1,2.328,0,6.575,6.575,0,0,0,2.226,0c0.721,0.088,1.42-.294,2.09,0,0.671,0.228,1.313-.128,1.922,0,0.608-.083,1.183.128,1.718,0,0.536,0,1.032-.014,1.482,0a10.39,10.39,0,0,1,1.212,0c0.355,0.115.659-.125,0.907,0,0.248-.069.44,0.053,0.57,0,0.129-.084.2-0.125,0.2,0a3.243,3.243,0,0,1,1.24-.283,2.162,2.162,0,0,0,1-.771,2.009,2.009,0,0,0,.652-1.135V379.411a1.908,1.908,0,0,0-.652-1.136c-0.282-.754-0.621-1.227-1-0.77C416.939,377.6,416.52,377.021,416.078,377.222Zm2.015,11.3c-0.029.61-.066,0.5-0.107,1.578-0.042.644-.089,1.2-0.137,1.581s-0.1.867-.15,1.58a12.193,12.193,0,0,1-.145,1.583c-0.045.568-.087,0.882-0.122,1.582-0.036.547-.065,1.275-0.084,1.584-0.02.5-.03,1.1-0.029,1.584,0,0.531.016,1.166,0.044,1.585a1.688,1.688,0,0,1-.172.86c0.015,0.478.04,0.984,0.072,1.563,0.031,0.513.07,1.079,0.112,1.564,0.043,0.519.088,1.113,0.136,1.565,0.046,0.659.094,1.062,0.14,1.56,0.045,0.446.089,1.033,0.128,1.555,0.035-.081.069,1.11,0.1,1.416,0.031,0.695.06,1.188,0.084,1.421,0.026,0.527.046,0.956,0.063,1.423,0.015,0.392.026,1.036,0.031,1.422,0,0.523,0,.71-0.006,1.421-0.009.648-.016,1.022-0.031,1.348-0.016.5-.038,1.158-0.078,1.377a4.657,4.657,0,0,1-.179,1.365c-0.082.358-.19,0.826-0.334,1.31a1.867,1.867,0,0,1,.275.982,1.328,1.328,0,0,1-.513.981,3.528,3.528,0,0,1-1.252.8,4.269,4.269,0,0,1-1.408.441c-0.489.067-.994,0.093-1.5,0.169a4.421,4.421,0,0,1-1.539-.02c-0.512-.1-1.019-0.027-1.512-0.125-0.492-.049-0.97-0.119-1.424-0.144-0.488-.156-0.976,0-1.465-0.113a1.69,1.69,0,0,0-1.465-.074,5.3,5.3,0,0,1-1.466-.047,2.146,2.146,0,0,1-1.467-.033c-0.488-.162-0.978.09-1.467-0.033a5.434,5.434,0,0,1-1.468-.044,2.906,2.906,0,0,0-1.422-.054,2.482,2.482,0,0,0-1.422-.057,1.608,1.608,0,0,0-1.422-.059,5.3,5.3,0,0,1-1.422-.057,2.05,2.05,0,0,1-1.422-.052,6.77,6.77,0,0,0-1.422-.046,3.318,3.318,0,0,0-1.423-.037,2.682,2.682,0,0,1-1.422-.025,2.127,2.127,0,0,1-1.5.025c-0.5.076-1,.054-1.5,0.083-0.5.094-1,0-1.5,0.1a2.853,2.853,0,0,0-1.5.063,6.832,6.832,0,0,1-1.5-.017,11.853,11.853,0,0,0-1.244-.134,3.876,3.876,0,0,0-1.31-.33,2.886,2.886,0,0,1-1.215-.586c-0.371-.4-0.7-0.215-0.96-0.9a3.875,3.875,0,0,1-.545-1.285,11.694,11.694,0,0,1-.169-1.584c-0.016-.512,0-1.049.037-1.571,0.108-1.567.385-3.127,0.41-4.72,0.061-3.862.132-7.721,0.14-11.585q0-2.393.046-4.785,0.013-.8.035-1.594c0.013-.5.029-1.141,0.046-1.6,0.018-.406.038-0.925,0.061-1.593,0.022-.428.047-1,0.074-1.594,0.026-.316.059-0.963,0.09-1.57,0.031-.411.059-1.171,0.077-1.614,0.018-.566.026-1.074,0.014-1.627a12.088,12.088,0,0,0-.1-1.612,5.223,5.223,0,0,0-.266-1.565,7.618,7.618,0,0,1-.484-1.491c-0.088-.533-0.129-0.408-0.13-0.6,0-.661.036-0.233,0.1-0.52,0.059-.076.178-0.987,0.36-0.734a0.945,0.945,0,0,0,.739-0.434c0.535-.425,1.07-0.146,1.606-0.32,0.536,0.262,1.073-.337,1.611-0.244,0.538-.414,1.077-0.071,1.616-0.178,0.54-.261,1.08.254,1.62-0.119a2.62,2.62,0,0,0,1.624-.071,5.165,5.165,0,0,0,1.627-.029c0.542-.364,1.084.053,1.627,0,0.543,0.2,1.086-.25,1.629.025a1.718,1.718,0,0,1,1.629.038,5.728,5.728,0,0,1,1.627.044c0.543,0.738,1.085-.041,1.627.039,0.541-.345,1.083.1,1.623,0.027,0.525-.068,1.049.041,1.574,0.006a3.859,3.859,0,0,1,1.573-.012,5.007,5.007,0,0,0,1.574-.024,9.2,9.2,0,0,1,1.574-.028,5.765,5.765,0,0,0,1.574-.028c0.524,0.016,1.048-.439,1.573-0.019,0.524,0.34,1.048-.046,1.572,0a4.906,4.906,0,0,1,1.572.015c0.524,0.053,1.047.024,1.571,0.043,1.047,0.039,2.093.1,3.138,0.194a2.414,2.414,0,0,1,1.567.163,5.148,5.148,0,0,1,1.565.217,3.478,3.478,0,0,1,.946.758,1.773,1.773,0,0,1-.06,1.248c0.1,0.331.171,0.45,0.234,0.671,0.063,0.386.115,0.4,0.164,0.672a5.6,5.6,0,0,1,.246,1.5c0.052,0.44.076,1.034,0.083,1.544,0.006,0.548,0,.53-0.025,1.55C418.149,387.706,418.121,388.275,418.093,388.521Zm-6.753,7.9a1.164,1.164,0,0,1,.1.365C411.652,396.787,411.5,396.732,411.34,396.423Zm-0.5-.1c0.066-.148.121,0.276,0.2-0.067-0.042-.081-0.057.009-0.1-0.011,0.018,0.1.024,0.082,0.067-.154C410.915,395.557,410.743,395.851,410.84,396.321Zm1.568-1.378c0.045,0.079.277-.2,0.385,0.151-0.03-.27-0.125.063-0.109-0.058,0.054-.492.038-0.149,0.115,0.038,0.028-.437-0.114-0.127-0.248-0.194C412.462,394.993,412.536,395.034,412.408,394.943Zm5.421-.328c0.181-.033.012,0.363,0.012,0.048,0-.1.094,0.177,0.058,0.064-0.024-.06-0.059.041-0.052,0.005,0,0.524.06,0.381,0.064,0.132,0.074-.462.094-0.1,0.011-0.129,0.044,0.094.068-.036,0.155-0.015,0.015,0.121-.014-0.576,0-0.089-0.042-.043-0.057.518-0.1-0.01-0.037-.017.076-0.061-0.012-0.137C417.941,394.637,417.839,394.383,417.829,394.615Zm-4.662.849c0.131,0.566.184,0.216,0.327,0.176,0.08-.6-0.25.266-0.138-0.223-0.041.14-.05,0.035-0.068-0.024,0.032-.29.007,0.644,0,0.089C413.251,395.542,413.175,395.294,413.167,395.464Zm-0.086-2.2c0.108-.464.029,0.223,0.086,0.14-0.027-.218.046-0.261,0.086-0.215-0.046-.165-0.194,0-0.219-0.029C413.034,393.483,413.081,393.3,413.081,393.263Zm-25.052,30.662a0.731,0.731,0,0,0,.024.624c0.023-.052.086-0.027,0.15,0a0.517,0.517,0,0,1,.132-0.469,1.154,1.154,0,0,1-.268.064C388.124,424.031,388.2,423.988,388.029,423.925Zm10.3-11.609c0.144-.316.239,0.112,0.4-0.174-0.083-.04-0.115.019-0.195-0.015a0.655,0.655,0,0,1,.15-0.359C398.5,411.665,398.143,412,398.326,412.316Zm5.77-2.059a1.5,1.5,0,0,1,.763.307c-0.051-.359.183-0.11,0.384-0.127,0.178-.651-0.41-0.317-0.664-0.479a0.269,0.269,0,0,1-.17.25,0.541,0.541,0,0,0-.189-0.217C404.213,410.145,404.1,410.1,404.1,410.257Zm-2.5-1.249a0.494,0.494,0,0,0,.763.307c-0.059-.047-0.251-0.024-0.215-0.123,0.112-.059.075,0.055,0.228,0.077,0.071-.4-0.224-0.162-0.482-0.419C401.709,408.984,401.851,409.187,401.6,409.008Zm3.086-.143c0.4,0.521.844-.441,0.19-0.5a1.015,1.015,0,0,1,.169.467C404.908,408.687,404.826,408.832,404.686,408.865Zm4.793,0.535a0.445,0.445,0,0,1-.046.343C409.174,410.032,410.17,409.685,409.479,409.4Zm-2.913-1.184a0.069,0.069,0,0,1-.1.016c-0.029-.041-0.035-0.484-0.063-0.608a0.287,0.287,0,0,1-.2-0.082c-0.124.17,0.147,0.129,0.135,0.239-0.342.149,0.013,0.557-.151,0.718,0.166,0.078.135-.223,0.261-0.22a0.369,0.369,0,0,1-.078.281,0.4,0.4,0,0,0,.123.093C406.446,408.5,406.6,408.479,406.566,408.216Zm-0.167-.592a0.035,0.035,0,0,0-.008-0.031A0.123,0.123,0,0,1,406.4,407.624Zm-0.2-.082a0.047,0.047,0,0,1,.005-0.01S406.2,407.535,406.2,407.542Zm0.41-.028c0.135,0.09.129-.089,0.222-0.079-0.16.2-.172,0.292,0.077,0.436C407.026,407.593,406.794,406.942,406.613,407.514Zm5.935,0.2c0.363,0,.021.1,0.02,0.108,0,0.046.189,0.016,0.11,0.14-0.05.08-.114-0.13-0.1,0.016,0.006,0.1.114,0.179,0.117,0.3,0.156-.192.2-0.318,0.033-0.3,0.09-.043.142-0.158,0.313-0.048,0.035-.085-0.023-0.121.007-0.2-0.083-.039-0.116.019-0.195-0.014-0.072-.091.16-0.217-0.013-0.312C412.772,407.714,412.58,407.379,412.548,407.715Zm-6.471-2.738a0.672,0.672,0,0,1,.194.372,2.8,2.8,0,0,0,.483.06A1.109,1.109,0,0,0,406.077,404.977Zm0.98-1c-0.09.155,0.162,0.126,0.248,0.186-0.023.078-.044,0.156-0.066,0.234-0.044-.081-0.153-0.119-0.2-0.014,0.051,0.025.029,0.09,0.006,0.155C407.627,404.672,407.633,403.95,407.057,403.973Zm2.911-.764a0.323,0.323,0,0,0,.169.108c0.066-.383-0.242-0.121-0.318-0.467-0.318.353,0.043,0.249-.034,0.655a1.024,1.024,0,0,0,.281-0.111c-0.029-.134-0.162.039-0.17-0.107C409.916,403.253,409.923,403.2,409.968,403.209Zm-21.355,21.835c-0.2.154-.489-0.245-0.645-0.371a0.947,0.947,0,0,1-.118.781c0.284,0.028-.021.66,0.253,0.341-0.013.087-.112,0.22,0.039,0.218,0.112-.2.209,0.021,0.371-0.08-0.148-.2-0.073-0.432.119-0.422C388.368,425.462,388.762,425.212,388.613,425.044Zm4.6,0.878a0.4,0.4,0,0,0,.1.343c0.044-.192.4-0.365,0.521-0.082-0.153.077-.266-0.091-0.385,0.128,0.386,0.119.466,0.343,0.692,0.027-0.086-.1-0.2.062-0.183-0.061,0.207-.1.058-0.428,0.314-0.407-0.007.026,0.022,0.065,0.046,0.015-0.161-.25.016-0.371-0.3-0.357a1.366,1.366,0,0,1-.1.531,0.548,0.548,0,0,1-.156-0.155c0.179-.034.079-0.185,0.183-0.3l-0.229-.077C393.954,425.81,393.467,426.112,393.21,425.922Zm9.875-15.8a3.743,3.743,0,0,0,.645.37c0.17-.28-0.5-0.22-0.259-0.5-0.084-.007-0.1-0.109-0.138-0.046,0.066,0.031.011,0.127-.006,0.2C403.253,410.155,403.106,410.018,403.085,410.122Zm4.876-4.564c-0.3-.008-0.306.257-0.236,0.485-0.045,0-.258.015-0.131,0.109,0.176-.072-0.019.159,0.013,0.312L407.7,406.5a0.362,0.362,0,0,0,.085-0.126c-0.052-.025-0.132-0.035-0.124-0.092C408.124,406.158,407.736,405.987,407.961,405.558Zm2.668-.436c-0.156-.349-0.526.089-0.522,0.081a0.367,0.367,0,0,1,.255-0.017,0.416,0.416,0,0,0,.012.312A0.47,0.47,0,0,1,410.629,405.122Zm-3.347-2.663c-0.193.077-.418,0.277-0.5-0.012Zm-0.5-.012a0.45,0.45,0,0,0-.15.359Zm3.013,9.726c-0.072.028-.338-0.154-0.293,0.157,0.393,0.2.38,0.071,0.574-.268C409.976,411.861,409.889,412.138,409.8,412.173Zm0.305-8.56a0.387,0.387,0,0,1-.014.4C410.5,404.282,410.467,403.669,410.1,403.613Zm-2.763-.826c0.23-.192.323,0.139,0.547,0.183A0.291,0.291,0,1,0,407.341,402.787Zm2.107,5.655-0.5.727A0.588,0.588,0,0,0,409.448,408.442Zm-3.748-1.235-0.119.277C405.975,407.83,406.039,406.818,405.7,407.207Zm3.365-2.226,0.432,0.145C409.394,404.879,409.311,404.673,409.065,404.981Zm0.669,0.516c0.075-.067-0.01-0.259.135-0.246l-0.372-.125A0.806,0.806,0,0,0,409.734,405.5Zm-1.462-.783,0.5,0.17A0.4,0.4,0,0,0,408.272,404.714Zm0.694,0.4c0.036-.055.069-0.1,0.1-0.137l-0.289-.1C408.839,404.961,408.9,405.048,408.966,405.118Zm-14.447,18.63c0.215-.09.566-0.446,0.334-0.656Zm10.423-19.312,0.61,0.185C405.378,404.322,405.175,404.471,404.942,404.436ZM386.28,419.325a0.406,0.406,0,0,0,.2.3c-0.006-.034.032-0.045,0.07-0.056a0.314,0.314,0,0,1-.083-0.278,0.8,0.8,0,0,1-.106.13C386.358,419.342,386.377,419.294,386.28,419.325Zm1.78-9.769a3.118,3.118,0,0,1,.333.343C388.6,409.75,388.282,409.552,388.06,409.556Zm-0.524.28a1.31,1.31,0,0,1,.133-0.233c-0.051.012-.048,0.052-0.1,0.065a0.414,0.414,0,0,1-.04-0.231A0.232,0.232,0,0,0,387.536,409.836Zm2.074-3.138a0.818,0.818,0,0,1,.453-0.13c-0.135-.158.052-0.122,0.142-0.2-0.118-.385-0.291,0-0.46.01a0.178,0.178,0,0,1,0,.185,0.278,0.278,0,0,0-.156-0.036C389.631,406.6,389.566,406.62,389.61,406.7Zm-1.557.308a0.276,0.276,0,0,0,.453-0.131c-0.042,0-.125.081-0.138,0.019,0.034-.07.051,0,0.13-0.046-0.088-.22-0.155,0-0.355-0.028C388.1,406.955,388.226,407,388.053,407.006Zm1.406-1.208c0.345,0.11.26-.527-0.065-0.315a0.538,0.538,0,0,1,.223.166C389.507,405.628,389.514,405.73,389.459,405.8Zm2.414-1.5a0.259,0.259,0,0,1,.084.185C391.925,404.716,392.286,404.178,391.873,404.293Zm-1.732.493a0.045,0.045,0,0,1-.044.047c-0.027-.01-0.166-0.225-0.217-0.275a0.156,0.156,0,0,1-.118.032c0,0.129.109,0.009,0.138,0.067-0.115.2,0.177,0.269,0.15,0.408,0.1-.023,0-0.159.055-0.2a0.233,0.233,0,0,1,.05.168,0.208,0.208,0,0,0,.086,0C390.172,404.971,390.237,404.9,390.141,404.786Zm-0.261-.228a0.023,0.023,0,0,0-.013-0.013Zm-0.118.032v-0.007C389.755,404.587,389.757,404.589,389.762,404.59Zm0.185-.165c0.091,0,.032-0.091.079-0.12-0.012.158,0.01,0.206,0.171,0.184C390.165,404.311,389.855,404.078,389.947,404.425Zm2.848-2.09c0.17-.134.039,0.04,0.042,0.046,0.012,0.024.094-.062,0.1,0.028,0,0.057-.093-0.022-0.043.046,0.032,0.046.108,0.045,0.146,0.1,0.014-.152,0-0.23-0.076-0.157a0.148,0.148,0,0,1,.132-0.14c-0.01-.055-0.048-0.051-0.06-0.1-0.051.012-.048,0.052-0.1,0.065-0.062-.018.009-0.166-0.1-0.148A1.119,1.119,0,0,0,392.8,402.335Zm-3.882,1.043c0.086-.051.133,0.108,0.206,0.111a1.647,1.647,0,0,0,.245-0.148A0.587,0.587,0,0,0,388.913,403.378Zm0.151-.853c0,0.109.114,0,.173,0,0.014,0.046.028,0.092,0.041,0.139a0.062,0.062,0,0,0-.1.065c0.032-.007.042,0.033,0.051,0.074C389.547,402.658,389.327,402.3,389.064,402.525Zm1.13-1.449a0.163,0.163,0,0,0,.113-0.009c-0.086-.211-0.151.03-0.293-0.111-0.04.29,0.1,0.106,0.186,0.334a0.682,0.682,0,0,0,.1-0.158c-0.055-.056-0.064.078-0.113,0.009C390.184,401.118,390.169,401.086,390.194,401.076Zm-3.3,18.582c-0.048.151-.305,0.06-0.417,0.057a0.56,0.56,0,0,1,.185.426c0.142-.091.193,0.331,0.224,0.074,0.021,0.047.015,0.148,0.085,0.092-0.008-.138.105-0.067,0.15-0.176a0.143,0.143,0,0,1-.074-0.25C386.913,419.954,387.02,419.686,386.9,419.658Zm2.429-1.264a0.21,0.21,0,0,0,.154.13c-0.038-.111.077-0.328,0.22-0.233-0.048.1-.153,0.053-0.141,0.2,0.217-.084.324,0,0.333-0.242-0.072-.017-0.077.107-0.105,0.037,0.067-.123-0.1-0.231.022-0.315,0,0.016.031,0.024,0.026-.01-0.153-.063-0.107-0.187-0.251-0.064a0.813,0.813,0,0,1,.118.3,0.264,0.264,0,0,1-.121-0.018c0.073-.083-0.02-0.12-0.006-0.213l-0.131.046C389.643,418.064,389.507,418.392,389.328,418.394Zm-0.521-3.506c0.016,0.131-.089.093,0.023,0.177-0.094.075-.107-0.017-0.156-0.037-0.085.143,0.14,0.359,0.285,0.083A0.37,0.37,0,0,1,388.807,414.888Zm-1.277-2.252a0.749,0.749,0,0,0,.033.111,0.446,0.446,0,0,0-.033.473c-0.069-.072.154-0.114,0.1,0.028a0.318,0.318,0,0,0,.056-0.3C387.925,413.188,387.81,412.333,387.53,412.636Zm1.564-5.631a1.92,1.92,0,0,0,.417-0.057c-0.006-.2-0.3.075-0.275-0.148-0.042.027-.079-0.017-0.079,0.028,0.04-.008.044,0.059,0.059,0.1C389.183,406.959,389.072,406.946,389.094,407.005Zm-1.542-2.466c0.061-.152.1,0.11,0.172,0.093a0.436,0.436,0,0,1-.065-0.315,0.169,0.169,0,0,0-.219.139Zm2.424-1.57c-0.141.105-.064,0.239,0.039,0.325-0.021.016-.117,0.1-0.028,0.1,0.061-.1.04,0.084,0.1,0.148l0.053-.019a0.257,0.257,0,0,0,0-.092c-0.032.006-.073,0.031-0.087,0C390.238,403.2,390,403.262,389.976,402.969Zm1.119-1.2c-0.181-.113-0.22.237-0.22,0.237a0.214,0.214,0,0,1,.114-0.107,0.233,0.233,0,0,0,.1.148A0.308,0.308,0,0,1,391.1,401.771ZM388.7,401.7c-0.067.108-.111,0.29-0.237,0.176Zm-0.237.176a0.284,0.284,0,0,0,.04.232Zm4.412,3.658c-0.025.041-.206,0.049-0.089,0.186,0.246-.049.2-0.106,0.187-0.343C392.865,405.316,392.91,405.484,392.878,405.534Zm-2.5-4.309a0.217,0.217,0,0,1,.118.2C390.777,401.406,390.57,401.119,390.383,401.225Zm-1.552.614c0.049-.179.195-0.052,0.313-0.111C389.053,401.432,388.761,401.629,388.831,401.839Zm2.732,2-0.012.543A0.384,0.384,0,0,0,391.563,403.834Zm-2.14.777,0.029,0.18C389.744,404.815,389.462,404.3,389.423,404.611Zm-1.229-.731a0.162,0.162,0,0,0,.094.125Zm2.123-1.6,0.247-.089C390.44,402.108,390.337,402.037,390.317,402.279Zm0.473,0.006c0.014-.06-0.084-0.123-0.012-0.171l-0.214.076A0.412,0.412,0,0,0,390.79,402.285Zm-0.927.155,0.289-.1A0.224,0.224,0,0,0,389.863,402.44Zm0.45-.058c0-.04,0-0.073,0-0.1l-0.165.059A1.277,1.277,0,0,0,390.313,402.382Zm-1.041,14.463c0.074-.123.128-0.427-0.045-0.445Zm-1.059-13.313-0.071.028A0.251,0.251,0,0,0,388.213,403.532Zm0,0,0.344-.134C388.383,403.315,388.333,403.463,388.213,403.532Zm14.271-7.926a0.375,0.375,0,0,0,.284-0.2c-0.031,0-.038-0.04-0.046-0.082a0.252,0.252,0,0,1-.259.07,0.8,0.8,0,0,1,.111.126C402.5,395.522,402.462,395.5,402.484,395.606Zm-8.777-2.641a3.077,3.077,0,0,1,.336-0.339C393.922,392.388,393.718,392.722,393.707,392.965Zm0.217,0.592a1.149,1.149,0,0,1-.2-0.162c0.006,0.057.044,0.056,0.052,0.11a0.334,0.334,0,0,1-.214.027A0.2,0.2,0,0,0,393.924,393.557Zm-2.712-2.488a1.038,1.038,0,0,1-.087-0.5c-0.153.136-.107-0.065-0.176-0.168-0.359.1-.024,0.315-0.024,0.5a0.14,0.14,0,0,1,.169.016,0.351,0.351,0,0,0-.045.167C391.124,391.039,391.137,391.112,391.212,391.069Zm0.17,1.721a0.329,0.329,0,0,0-.087-0.5c0,0.046.064,0.143,0.007,0.153-0.061-.042,0-0.057-0.033-0.146-0.207.081-.008,0.17-0.05,0.386C391.338,392.739,391.39,392.6,391.382,392.79Zm-1-1.62c0.125-.369-0.462-0.321-0.292.048a0.573,0.573,0,0,1,.168-0.231C390.23,391.1,390.323,391.105,390.381,391.17Zm-1.2-2.743c-0.016-.054.171-0.08,0.171-0.08C389.57,388.4,389.106,387.968,389.181,388.427Zm0.326,1.927c0.01-.009.049,0.025,0.04,0.051s-0.217.164-.266,0.216a0.2,0.2,0,0,1,.02.131c0.117,0.016.017-.118,0.071-0.145,0.174,0.14.258-.175,0.383-0.135-0.014-.113-0.145,0-0.182-0.074a0.184,0.184,0,0,1,.155-0.043,0.238,0.238,0,0,0,.006-0.094C389.677,390.332,389.621,390.256,389.507,390.354Zm-0.226.267a0.035,0.035,0,0,0-.012.014A0.059,0.059,0,0,1,389.281,390.621Zm0.02,0.131H389.3C389.3,390.76,389.3,390.758,389.3,390.752Zm-0.137-.212c0-.1-0.081-0.043-0.1-0.1,0.143,0.025.189,0,.181-0.173C389.076,390.293,388.841,390.615,389.164,390.54Zm-1.7-3.259c-0.109-.195.039-0.04,0.046-0.043s-0.051-.106.031-0.1c0.053,0-.026.1,0.04,0.052a1.513,1.513,0,0,1,.1-0.152c-0.137-.028-0.21-0.014-0.149.071a0.15,0.15,0,0,1-.118-0.154c-0.05.007-.049,0.048-0.1,0.058,0.007,0.056.044,0.056,0.052,0.109-0.02.066-.15-0.021-0.142,0.1A0.832,0.832,0,0,0,387.462,387.281Zm0.674,4.313a0.406,0.406,0,0,1,.116-0.218,1.876,1.876,0,0,0-.118-0.278A0.767,0.767,0,0,0,388.136,391.594Zm-0.767-.226c0.1,0,.01-0.125.012-0.189l0.13-.036c-0.025.048-.01,0.119,0.052,0.11,0-.035.034-0.043,0.072-0.05C387.524,390.85,387.184,391.065,387.369,391.368Zm-1.239-1.338a0.217,0.217,0,0,0,0-.124c-0.2.08,0.017,0.167-.122,0.312,0.262,0.065.1-.1,0.317-0.179a0.63,0.63,0,0,0-.136-0.118,0.517,0.517,0,0,1,0,.124C386.166,390.044,386.137,390.058,386.13,390.03Zm16.7,4.923a0.5,0.5,0,0,1,.022.459,0.469,0.469,0,0,1,.4-0.171c-0.072-.162.317-0.188,0.084-0.24,0.044-.019.136,0,0.09-0.086-0.126,0-.053-0.118-0.149-0.176-0.049.14-.181,0.17-0.234,0.064C403.1,394.96,402.865,394.823,402.831,394.953Zm-0.979-2.741a0.219,0.219,0,0,0,.129-0.159,0.18,0.18,0,0,1-.2-0.257c0.083,0.06.038,0.171,0.177,0.169-0.061-.244.02-0.355-0.2-0.381-0.021.077,0.091,0.092,0.026,0.117-0.107-.083-0.218.1-0.285-0.047,0.014,0,.023-0.031-0.007-0.029-0.069.162-.179,0.1-0.077,0.269a0.685,0.685,0,0,1,.279-0.107,0.355,0.355,0,0,1-.025.131c-0.071-.086-0.111.013-0.195-0.009l0.033,0.147C401.574,391.845,401.863,392.016,401.852,392.212Zm-3.232.319c0.12-.009.077,0.1,0.162-0.013,0.062,0.108-.023.116-0.045,0.167,0.125,0.1.337-.127,0.1-0.305A0.338,0.338,0,0,1,398.62,392.531Zm-2.144,1.233a0.756,0.756,0,0,0,.1-0.029c0.118,0.024.258,0.239,0.428,0.07-0.07.07-.092-0.176,0.032-0.1a0.255,0.255,0,0,0-.266-0.082C397.007,393.372,396.219,393.436,396.476,393.764Zm-5.021-2.11a2.624,2.624,0,0,0-.022-0.459c-0.183-.007.047,0.333-0.155,0.29,0.022,0.047-.021.085,0.02,0.087,0-.044.057-0.043,0.1-0.057C391.419,391.554,391.4,391.675,391.455,391.654Zm-2.357,1.508c-0.136-.078.107-0.107,0.1-0.181a0.347,0.347,0,0,1-.292.048c-0.034.085,0.024,0.265,0.111,0.249Zm-1.259-2.759c0.086,0.162.213,0.087,0.3-.019,0.013,0.024.085,0.135,0.091,0.037-0.088-.073.08-0.037,0.142-0.1,0-.019-0.009-0.038-0.013-0.058a0.193,0.193,0,0,0-.084-0.008c0,0.036.023,0.082-.007,0.095C388.071,390.134,388.108,390.4,387.839,390.4Zm-1.012-1.306c-0.116.189,0.2,0.256,0.2,0.256a0.23,0.23,0,0,1-.09-0.131,0.222,0.222,0,0,0,.143-0.1A0.246,0.246,0,0,1,386.827,389.1Zm-0.236,2.606c0.095,0.081.257,0.142,0.145,0.27Zm0.145,0.27c0.094-.009.135,0.055,0.214-0.027Zm3.649-4.555c0.034,0.031.029,0.229,0.162,0.111-0.027-.271-0.081-0.226-0.3-0.229C390.185,387.417,390.341,387.381,390.385,387.418Zm-4.107,2.417a0.2,0.2,0,0,1,.194-0.115C386.471,389.418,386.2,389.622,386.278,389.835Zm0.449,1.738c-0.159-.066-0.033-0.217-0.079-0.351A0.18,0.18,0,1,0,386.727,391.573Zm2.014-2.841,0.494,0.052A0.313,0.313,0,0,0,388.741,388.732Zm0.556,2.392,0.165-.019C389.505,390.788,389.011,391.059,389.3,391.124Zm-0.755,1.289a0.153,0.153,0,0,0,.121-0.093Zm-1.308-2.431-0.063-.276C387.087,389.835,387.015,389.942,387.234,389.982Zm0.04-.516c-0.054-.02-0.118.083-0.156,0l0.053,0.238A0.493,0.493,0,0,0,387.274,389.466Zm0.075,1.024-0.073-.323A0.274,0.274,0,0,0,387.349,390.49Zm-0.02-.5a0.719,0.719,0,0,1-.1-0.012l0.042,0.185C387.294,390.11,387.317,390.052,387.329,389.994Zm13.107,2.168c-0.107-.088-0.38-0.171-0.409.017Zm-12.209.206,0.02,0.079A0.315,0.315,0,0,0,388.227,392.368Zm0,0-0.1-.385A0.38,0.38,0,0,0,388.227,392.368Z" transform="translate(-374.031 -376.969)"/>
</svg>
